<svg xmlns="http://www.w3.org/2000/svg" xmlns:xlink="http://www.w3.org/1999/xlink" id="Calque_1" x="0px" y="0px" viewBox="0 0 241 72" style="enable-background:new 0 0 241 72;" xml:space="preserve"><style type="text/css">	.st0{clip-path:url(#SVGID_00000021085108733585661600000002701858156078259086_);}	.st1{fill-rule:evenodd;clip-rule:evenodd;fill:url(#SVGID_00000047738306956848098680000009510189738687613858_);}	.st2{fill:#BBA080;}</style><g>	<defs>		<rect id="SVGID_1_" x="3" width="234.8" height="45.9"></rect>	</defs>	<clipPath id="SVGID_00000127738090264972350390000017337144530519635895_">		<use xlink:href="#SVGID_1_" style="overflow:visible;"></use>	</clipPath>	<g style="clip-path:url(#SVGID_00000127738090264972350390000017337144530519635895_);">					<linearGradient id="SVGID_00000045602179129251803540000000146182421540175492_" gradientUnits="userSpaceOnUse" x1="3" y1="50.6492" x2="237.8" y2="50.6492" gradientTransform="matrix(1 0 0 -1 0 74)">			<stop offset="0" style="stop-color:#829BF7"></stop>			<stop offset="1" style="stop-color:#BBA07F"></stop>		</linearGradient>		<path style="fill-rule:evenodd;clip-rule:evenodd;fill:url(#SVGID_00000045602179129251803540000000146182421540175492_);" d="   M43.6,45.4L24.5,5.9L6.3,45.4H3L23.1,1.7c0.2-0.5,0.8-0.9,1.3-0.9c0.6,0,1.1,0.3,1.4,0.8L47,45.4H43.6z M58.4,45.8V22.3h3v20.5   h15.7c10.8,0,19.5-8.8,19.5-19.5S87.9,3.8,77.1,3.8H58.9v-3h18.2c12.4,0,22.5,10.1,22.5,22.5S89.5,45.8,77.1,45.8H58.4z    M123.9,44.9c0.2,0.6,0.8,1,1.4,1c0.7,0,1.2-0.4,1.5-0.9l14-38.1l13.1,38c0.2,0.6,0.8,1,1.4,1c0.6,0,1.2-0.4,1.4-1l15.4-43.6h-3.2   l-13.6,38.5L142.2,1.9c-0.2-0.6-0.8-1-1.5-1c-0.6,0.1-1.1,0.4-1.3,1L125.3,40L111.7,1.3h-3.2L123.9,44.9z M205.2,45.3   c-0.6,0-1.1-0.3-1.3-0.8c-0.3-0.5-0.2-1.1,0.1-1.6l29.2-39.1h-28.3v-3h31.3c0.6,0,1.1,0.3,1.3,0.8c0.3,0.5,0.2,1.1-0.1,1.6   l-29.2,39.1h29.6v3H205.2z M185.5,1.3h3v44h-3V1.3z"></path>	</g></g><rect x="3" y="53" class="st2" width="235" height="1"></rect><path class="st2" d="M5.9,69.1L5.1,71H3.5l3.7-8.4h1.5l3.7,8.4h-1.5l-0.8-1.9H5.9z M9.5,67.8L8,64.3l-1.5,3.4H9.5z M18.4,71h-1.6 l-3.4-8.4h1.6l2.6,6.3l2.6-6.3h1.6L18.4,71z M27.9,63.7c-0.8,0-1.5,0.3-2.1,0.9s-0.9,1.3-0.9,2.2c0,0.8,0.3,1.6,0.9,2.2 c0.6,0.6,1.3,0.9,2.1,0.9c0.8,0,1.5-0.3,2.1-0.9c0.6-0.6,0.9-1.3,0.9-2.2c0-0.8-0.3-1.6-0.9-2.2C29.4,64,28.7,63.7,27.9,63.7z  M27.9,71.1c-1.3,0-2.3-0.4-3.2-1.2c-0.8-0.8-1.3-1.9-1.3-3.1c0-1.2,0.4-2.3,1.3-3.1c0.8-0.8,1.9-1.3,3.2-1.3c1.3,0,2.3,0.4,3.2,1.3 c0.8,0.8,1.3,1.9,1.3,3.1c0,1.2-0.4,2.3-1.3,3.1C30.2,70.7,29.1,71.1,27.9,71.1z M41.3,68.7l0.9,0.9c-0.9,1-1.9,1.5-3.2,1.5 c-1.3,0-2.3-0.4-3.2-1.2c-0.8-0.8-1.3-1.9-1.3-3.1c0-1.3,0.4-2.3,1.3-3.1c0.9-0.8,1.9-1.3,3.2-1.3c1.3,0,2.4,0.5,3.2,1.4l-0.9,1 c-0.4-0.4-0.8-0.7-1.1-0.8c-0.4-0.1-0.8-0.2-1.3-0.2c-0.9,0-1.6,0.3-2.2,0.8c-0.6,0.5-0.9,1.2-0.9,2.1c0,0.8,0.3,1.5,0.9,2.1 c0.6,0.6,1.3,0.9,2,0.9c0.5,0,0.9-0.1,1.2-0.2C40.5,69.3,40.9,69,41.3,68.7z M46.1,69.1L45.3,71h-1.5l3.7-8.4H49l3.7,8.4h-1.5 l-0.8-1.9H46.1z M49.7,67.8l-1.5-3.4l-1.5,3.4H49.7z M58,63.9V71h-1.4v-7.1H54v-1.3h6.5v1.3H58z M73.5,62.6v1.3h-4.5v2.2h4v1.3h-4 v2.2h4.6V71h-6v-8.4H73.5z M82.8,62.6h1.4V71h-1.5l-4.7-6.1V71h-1.4v-8.4h1.4l4.9,6.3V62.6z M94.7,62.6c1.5,0,2.7,0.4,3.5,1.1 c0.8,0.7,1.2,1.7,1.2,3.1c0,1.3-0.4,2.4-1.2,3.1c-0.8,0.7-2,1.1-3.6,1.1h-2.8v-8.4H94.7z M94.6,63.9h-1.4v5.7h1.6 c1,0,1.8-0.2,2.3-0.7c0.5-0.5,0.8-1.2,0.8-2.1C97.9,64.9,96.8,63.9,94.6,63.9z M107.1,67.9l2.2,3.1h-1.8l-2-2.8h-1.9V71h-1.4v-8.4 h3.1c1.3,0,2.2,0.2,2.7,0.7c0.6,0.4,0.8,1.1,0.8,2.1C108.9,66.7,108.3,67.6,107.1,67.9z M105.3,66.9c0.8,0,1.3-0.1,1.6-0.4 c0.3-0.2,0.4-0.6,0.4-1.2c0-0.5-0.1-0.9-0.4-1.1c-0.3-0.2-0.8-0.3-1.6-0.3h-1.8v3H105.3z M115.8,63.7c-0.8,0-1.5,0.3-2.1,0.9 c-0.6,0.6-0.9,1.3-0.9,2.2c0,0.8,0.3,1.6,0.9,2.2c0.6,0.6,1.3,0.9,2.1,0.9c0.8,0,1.5-0.3,2.1-0.9c0.6-0.6,0.9-1.3,0.9-2.2 c0-0.8-0.3-1.6-0.9-2.2C117.3,64,116.6,63.7,115.8,63.7z M115.8,71.1c-1.3,0-2.3-0.4-3.2-1.2c-0.8-0.8-1.3-1.9-1.3-3.1 c0-1.2,0.4-2.3,1.3-3.1c0.8-0.8,1.9-1.3,3.2-1.3c1.3,0,2.3,0.4,3.2,1.3c0.8,0.8,1.3,1.9,1.3,3.1c0,1.2-0.4,2.3-1.3,3.1 C118.1,70.7,117,71.1,115.8,71.1z M123,62.6h1.4V71H123V62.6z M130.9,63.9V71h-1.4v-7.1h-2.5v-1.3h6.5v1.3H130.9z M143.2,62.6 c1.5,0,2.7,0.4,3.5,1.1c0.8,0.7,1.2,1.7,1.2,3.1c0,1.3-0.4,2.4-1.2,3.1c-0.8,0.7-2,1.1-3.6,1.1h-2.8v-8.4H143.2z M143.1,63.9h-1.4 v5.7h1.6c1,0,1.8-0.2,2.3-0.7c0.5-0.5,0.8-1.2,0.8-2.1C146.4,64.9,145.3,63.9,143.1,63.9z M156.6,62.6v1.3h-4.5v2.2h4v1.3h-4v2.2 h4.6V71h-6v-8.4H156.6z M160.6,64.7c0,0.4,0.1,0.6,0.4,0.8c0.3,0.2,0.8,0.4,1.7,0.6c0.9,0.2,1.6,0.5,2,0.9c0.4,0.4,0.6,0.9,0.6,1.6 c0,0.7-0.3,1.3-0.8,1.8c-0.5,0.5-1.3,0.7-2.2,0.7c-1.3,0-2.5-0.5-3.5-1.4l0.9-1.1c0.9,0.7,1.7,1.1,2.6,1.1c0.4,0,0.8-0.1,1.1-0.3 c0.3-0.2,0.4-0.5,0.4-0.8c0-0.3-0.1-0.6-0.4-0.8c-0.2-0.2-0.7-0.3-1.3-0.5c-1.1-0.3-1.8-0.5-2.3-0.9c-0.5-0.4-0.7-1-0.7-1.7 c0-0.8,0.3-1.3,0.8-1.8c0.5-0.4,1.3-0.7,2.1-0.7c1.2,0,2.1,0.3,3,1l-0.8,1.1c-0.3-0.2-0.6-0.4-1-0.5c-0.4-0.1-0.8-0.2-1.3-0.2 c-0.4,0-0.8,0.1-1,0.3C160.8,64.2,160.6,64.4,160.6,64.7z M173.5,69.1l-0.8,1.9h-1.5l3.7-8.4h1.5l3.7,8.4h-1.5l-0.8-1.9H173.5z  M177.2,67.8l-1.5-3.4l-1.5,3.4H177.2z M183.7,63.9v2.3h3.7v1.3h-3.7V71h-1.4v-8.4h5.6l0,1.3H183.7z M191.9,63.9v2.3h3.7v1.3h-3.7 V71h-1.4v-8.4h5.6l0,1.3H191.9z M200,69.1l-0.8,1.9h-1.5l3.7-8.4h1.5l3.7,8.4H205l-0.8-1.9H200z M203.6,67.8l-1.5-3.4l-1.5,3.4 H203.6z M208.7,62.6h1.4V71h-1.4V62.6z M218.3,67.9l2.2,3.1h-1.8l-2-2.8h-1.9V71h-1.4v-8.4h3.1c1.3,0,2.2,0.2,2.7,0.7 c0.6,0.4,0.8,1.1,0.8,2.1C220.1,66.7,219.5,67.6,218.3,67.9z M216.6,66.9c0.8,0,1.3-0.1,1.6-0.4c0.3-0.2,0.4-0.6,0.4-1.2 c0-0.5-0.1-0.9-0.4-1.1c-0.3-0.2-0.8-0.3-1.6-0.3h-1.8v3H216.6z M229,62.6v1.3h-4.5v2.2h4v1.3h-4v2.2h4.6V71h-6v-8.4H229z  M233.1,64.7c0,0.4,0.1,0.6,0.4,0.8c0.3,0.2,0.8,0.4,1.7,0.6c0.9,0.2,1.6,0.5,2,0.9c0.4,0.4,0.6,0.9,0.6,1.6c0,0.7-0.3,1.3-0.8,1.8 c-0.5,0.5-1.3,0.7-2.2,0.7c-1.3,0-2.5-0.5-3.5-1.4l0.9-1.1c0.9,0.7,1.7,1.1,2.6,1.1c0.4,0,0.8-0.1,1.1-0.3c0.3-0.2,0.4-0.5,0.4-0.8 c0-0.3-0.1-0.6-0.4-0.8c-0.2-0.2-0.7-0.3-1.3-0.5c-1.1-0.3-1.8-0.5-2.3-0.9c-0.5-0.4-0.7-1-0.7-1.7c0-0.8,0.3-1.3,0.8-1.8 c0.5-0.4,1.3-0.7,2.1-0.7c1.2,0,2.1,0.3,3,1l-0.8,1.1c-0.3-0.2-0.6-0.4-1-0.5c-0.4-0.1-0.8-0.2-1.3-0.2c-0.4,0-0.8,0.1-1,0.3 C233.2,64.2,233.1,64.4,233.1,64.7z"></path></svg>